<svg width="1200" height="300" viewBox="0 0 1200 300" xmlns="http://www.w3.org/2000/svg">
  <defs>
    <linearGradient id="bg" x1="0%" y1="0%" x2="100%" y2="100%">
      <stop offset="0%" stop-color="#0F172A"/>
      <stop offset="100%" stop-color="#1E293B"/>
    </linearGradient>
    <linearGradient id="brand" x1="0%" y1="0%" x2="100%" y2="0%">
      <stop offset="0%" stop-color="#6366F1"/>
      <stop offset="100%" stop-color="#8B5CF6"/>
    </linearGradient>
    <radialGradient id="glow1" cx="50%" cy="50%" r="50%">
      <stop offset="0%" stop-color="#6366F1" stop-opacity="0.35"/>
      <stop offset="100%" stop-color="#6366F1" stop-opacity="0"/>
    </radialGradient>
    <radialGradient id="glow2" cx="50%" cy="50%" r="50%">
      <stop offset="0%" stop-color="#06B6D4" stop-opacity="0.25"/>
      <stop offset="100%" stop-color="#06B6D4" stop-opacity="0"/>
    </radialGradient>
  </defs>

  <rect width="1200" height="300" fill="url(#bg)"/>
  <circle cx="150" cy="60" r="220" fill="url(#glow1)"/>
  <circle cx="1080" cy="260" r="200" fill="url(#glow2)"/>

  <!-- link icon -->
  <g transform="translate(120,110)" stroke="url(#brand)" stroke-width="10" fill="none" stroke-linecap="round">
    <path d="M35 45 L20 60 a25 25 0 0 0 35 35 l15 -15"/>
    <path d="M45 35 L60 20 a25 25 0 0 1 35 35 l-15 15"/>
    <line x1="42" y1="58" x2="58" y2="42"/>
  </g>

  <text x="220" y="150" font-family="Arial, Helvetica, sans-serif" font-size="72" font-weight="800" fill="url(#brand)">Trimly</text>
  <text x="220" y="195" font-family="Arial, Helvetica, sans-serif" font-size="26" fill="#94A3B8">Production-grade URL Shortener &#8212; Node.js &#183; Express &#183; MySQL</text>
  <text x="220" y="230" font-family="Arial, Helvetica, sans-serif" font-size="20" fill="#64748B">Custom LFU Cache &#8226; JWT Auth &#8226; Click Analytics &#8226; QR Codes</text>
</svg>
